<svg xmlns="http://www.w3.org/2000/svg" xmlns:xlink="http://www.w3.org/1999/xlink" width="1100" zoomAndPan="magnify" viewBox="0 0 824.88 337.499995" height="450" preserveAspectRatio="xMidYMid meet" version="1.0"><defs><g/><clipPath id="613dea853b"><path d="M 186.152344 2.261719 L 219.714844 2.261719 L 219.714844 94.429688 L 186.152344 94.429688 Z M 186.152344 2.261719 " clip-rule="nonzero"/></clipPath><clipPath id="9325e4dea8"><path d="M 0.152344 0.261719 L 33.714844 0.261719 L 33.714844 92.429688 L 0.152344 92.429688 Z M 0.152344 0.261719 " clip-rule="nonzero"/></clipPath><clipPath id="bfc767ec9d"><rect x="0" width="34" y="0" height="93"/></clipPath><clipPath id="63e3746904"><path d="M 186.152344 121.832031 L 219.714844 121.832031 L 219.714844 218.816406 L 186.152344 218.816406 Z M 186.152344 121.832031 " clip-rule="nonzero"/></clipPath><clipPath id="1c87f71ad3"><path d="M 0.152344 0.832031 L 33.714844 0.832031 L 33.714844 97.816406 L 0.152344 97.816406 Z M 0.152344 0.832031 " clip-rule="nonzero"/></clipPath><clipPath id="b6e6c819dc"><rect x="0" width="34" y="0" height="98"/></clipPath><clipPath id="8b9424e32a"><path d="M 0.789062 0.296875 L 219.714844 0.296875 L 219.714844 33.855469 L 0.789062 33.855469 Z M 0.789062 0.296875 " clip-rule="nonzero"/></clipPath><clipPath id="489d68599e"><path d="M 0.789062 0.296875 L 219.714844 0.296875 L 219.714844 33.855469 L 0.789062 33.855469 Z M 0.789062 0.296875 " clip-rule="nonzero"/></clipPath><clipPath id="f126fdc417"><rect x="0" width="220" y="0" height="34"/></clipPath><clipPath id="a73573ae69"><path d="M 0.789062 2.261719 L 34.351562 2.261719 L 34.351562 216.714844 L 0.789062 216.714844 Z M 0.789062 2.261719 " clip-rule="nonzero"/></clipPath><clipPath id="ff849e4a5e"><path d="M 0.789062 0.261719 L 34.351562 0.261719 L 34.351562 214.714844 L 0.789062 214.714844 Z M 0.789062 0.261719 " clip-rule="nonzero"/></clipPath><clipPath id="c36b3a6aa1"><rect x="0" width="35" y="0" height="215"/></clipPath><clipPath id="677f4737f6"><path d="M 0.789062 186.019531 L 219.714844 186.019531 L 219.714844 220.707031 L 0.789062 220.707031 Z M 0.789062 186.019531 " clip-rule="nonzero"/></clipPath><clipPath id="7f7627b5ac"><path d="M 0.789062 0.0195312 L 219.714844 0.0195312 L 219.714844 34.707031 L 0.789062 34.707031 Z M 0.789062 0.0195312 " clip-rule="nonzero"/></clipPath><clipPath id="75775df453"><rect x="0" width="220" y="0" height="35"/></clipPath><clipPath id="18b8af082d"><path d="M 140.613281 57.515625 L 161.242188 57.515625 L 161.242188 161.460938 L 140.613281 161.460938 Z M 140.613281 57.515625 " clip-rule="nonzero"/></clipPath><clipPath id="5de0ad0db7"><path d="M 0.613281 0.515625 L 21.242188 0.515625 L 21.242188 104.460938 L 0.613281 104.460938 Z M 0.613281 0.515625 " clip-rule="nonzero"/></clipPath><clipPath id="71708b6b72"><rect x="0" width="22" y="0" height="105"/></clipPath><clipPath id="1f053cbe11"><path d="M 70.46875 57.515625 L 157.425781 57.515625 L 157.425781 78.144531 L 70.46875 78.144531 Z M 70.46875 57.515625 " clip-rule="nonzero"/></clipPath><clipPath id="c314e14081"><path d="M 0.46875 0.515625 L 87.425781 0.515625 L 87.425781 21.144531 L 0.46875 21.144531 Z M 0.46875 0.515625 " clip-rule="nonzero"/></clipPath><clipPath id="2a71dcc19c"><rect x="0" width="88" y="0" height="22"/></clipPath><clipPath id="96764aee48"><path d="M 59.261719 57.515625 L 79.890625 57.515625 L 79.890625 161.460938 L 59.261719 161.460938 Z M 59.261719 57.515625 " clip-rule="nonzero"/></clipPath><clipPath id="43ae91e45d"><path d="M 0.261719 0.515625 L 20.890625 0.515625 L 20.890625 104.460938 L 0.261719 104.460938 Z M 0.261719 0.515625 " clip-rule="nonzero"/></clipPath><clipPath id="e57ddb671d"><rect x="0" width="21" y="0" height="105"/></clipPath><clipPath id="fb8f9779ec"><path d="M 98.292969 57.515625 L 118.921875 57.515625 L 118.921875 161.460938 L 98.292969 161.460938 Z M 98.292969 57.515625 " clip-rule="nonzero"/></clipPath><clipPath id="a597f3bedf"><path d="M 0.292969 0.515625 L 20.921875 0.515625 L 20.921875 104.460938 L 0.292969 104.460938 Z M 0.292969 0.515625 " clip-rule="nonzero"/></clipPath><clipPath id="92375e9be9"><rect x="0" width="21" y="0" height="105"/></clipPath><clipPath id="befb7ed3a1"><rect x="0" width="220" y="0" height="221"/></clipPath></defs><g transform="matrix(1, 0, 0, 1, 41, 58)"><g clip-path="url(#befb7ed3a1)"><g clip-path="url(#613dea853b)"><g transform="matrix(1, 0, 0, 1, 186, 2)"><g clip-path="url(#bfc767ec9d)"><g clip-path="url(#9325e4dea8)"><path fill="#143aa2" d="M 0.152344 0.261719 L 33.714844 0.261719 L 33.714844 92.425781 L 0.152344 92.425781 Z M 0.152344 0.261719 " fill-opacity="1" fill-rule="nonzero"/></g></g></g></g><g clip-path="url(#63e3746904)"><g transform="matrix(1, 0, 0, 1, 186, 121)"><g clip-path="url(#b6e6c819dc)"><g clip-path="url(#1c87f71ad3)"><path fill="#143aa2" d="M 0.152344 0.832031 L 33.714844 0.832031 L 33.714844 97.847656 L 0.152344 97.847656 Z M 0.152344 0.832031 " fill-opacity="1" fill-rule="nonzero"/></g></g></g></g><g clip-path="url(#8b9424e32a)"><g><g clip-path="url(#f126fdc417)"><g clip-path="url(#489d68599e)"><path fill="#143aa2" d="M 0.789062 0.296875 L 219.726562 0.296875 L 219.726562 33.855469 L 0.789062 33.855469 Z M 0.789062 0.296875 " fill-opacity="1" fill-rule="nonzero"/></g></g></g></g><g clip-path="url(#a73573ae69)"><g transform="matrix(1, 0, 0, 1, 0, 2)"><g clip-path="url(#c36b3a6aa1)"><g clip-path="url(#ff849e4a5e)"><path fill="#143aa2" d="M 0.789062 0.261719 L 34.351562 0.261719 L 34.351562 214.742188 L 0.789062 214.742188 Z M 0.789062 0.261719 " fill-opacity="1" fill-rule="nonzero"/></g></g></g></g><g clip-path="url(#677f4737f6)"><g transform="matrix(1, 0, 0, 1, 0, 186)"><g clip-path="url(#75775df453)"><g clip-path="url(#7f7627b5ac)"><path fill="#143aa2" d="M 0.789062 0.0195312 L 219.753906 0.0195312 L 219.753906 34.707031 L 0.789062 34.707031 Z M 0.789062 0.0195312 " fill-opacity="1" fill-rule="nonzero"/></g></g></g></g><g clip-path="url(#18b8af082d)"><g transform="matrix(1, 0, 0, 1, 140, 57)"><g clip-path="url(#71708b6b72)"><g clip-path="url(#5de0ad0db7)"><path fill="#143aa2" d="M 0.613281 0.515625 L 21.242188 0.515625 L 21.242188 104.460938 L 0.613281 104.460938 Z M 0.613281 0.515625 " fill-opacity="1" fill-rule="nonzero"/></g></g></g></g><g clip-path="url(#1f053cbe11)"><g transform="matrix(1, 0, 0, 1, 70, 57)"><g clip-path="url(#2a71dcc19c)"><g clip-path="url(#c314e14081)"><path fill="#143aa2" d="M 0.46875 0.515625 L 87.410156 0.515625 L 87.410156 21.144531 L 0.46875 21.144531 Z M 0.46875 0.515625 " fill-opacity="1" fill-rule="nonzero"/></g></g></g></g><g clip-path="url(#96764aee48)"><g transform="matrix(1, 0, 0, 1, 59, 57)"><g clip-path="url(#e57ddb671d)"><g clip-path="url(#43ae91e45d)"><path fill="#143aa2" d="M 0.261719 0.515625 L 20.890625 0.515625 L 20.890625 104.460938 L 0.261719 104.460938 Z M 0.261719 0.515625 " fill-opacity="1" fill-rule="nonzero"/></g></g></g></g><g clip-path="url(#fb8f9779ec)"><g transform="matrix(1, 0, 0, 1, 98, 57)"><g clip-path="url(#92375e9be9)"><g clip-path="url(#a597f3bedf)"><path fill="#143aa2" d="M 0.292969 0.515625 L 20.921875 0.515625 L 20.921875 104.460938 L 0.292969 104.460938 Z M 0.292969 0.515625 " fill-opacity="1" fill-rule="nonzero"/></g></g></g></g></g></g><g fill="#143aa2" fill-opacity="1"><g transform="translate(266.893761, 153.522551)"><g><path d="M 10.296875 0 L 10.296875 -76.84375 L 40.375 -76.84375 L 56.140625 -39.8125 C 56.742188 -38.550781 57.4375 -36.875 58.21875 -34.78125 C 59 -32.695312 59.816406 -30.5 60.671875 -28.1875 C 61.535156 -25.875 62.300781 -23.820312 62.96875 -22.03125 L 63.75 -22.03125 C 64.34375 -23.675781 65.050781 -25.578125 65.875 -27.734375 C 66.695312 -29.898438 67.515625 -32.0625 68.328125 -34.21875 C 69.148438 -36.382812 69.863281 -38.210938 70.46875 -39.703125 L 86.34375 -76.84375 L 115.640625 -76.84375 L 115.640625 0 L 96.40625 0 L 96.40625 -44.0625 C 96.40625 -45.476562 96.421875 -47.046875 96.453125 -48.765625 C 96.492188 -50.484375 96.550781 -52.160156 96.625 -53.796875 C 96.707031 -55.429688 96.75 -56.882812 96.75 -58.15625 L 95.84375 -58.15625 C 95.476562 -56.882812 94.976562 -55.390625 94.34375 -53.671875 C 93.707031 -51.960938 93.085938 -50.25 92.484375 -48.53125 C 91.890625 -46.820312 91.332031 -45.332031 90.8125 -44.0625 L 71.796875 0 L 53.46875 0 L 34.453125 -44.0625 C 33.703125 -45.78125 32.988281 -47.515625 32.3125 -49.265625 C 31.644531 -51.015625 31.066406 -52.671875 30.578125 -54.234375 C 30.097656 -55.804688 29.671875 -57.113281 29.296875 -58.15625 L 28.40625 -58.15625 C 28.476562 -57.1875 28.53125 -55.914062 28.5625 -54.34375 C 28.601562 -52.78125 28.644531 -51.101562 28.6875 -49.3125 C 28.726562 -47.53125 28.75 -45.78125 28.75 -44.0625 L 28.75 0 Z M 10.296875 0 "/></g></g></g><g fill="#143aa2" fill-opacity="1"><g transform="translate(392.814896, 153.522551)"><g><path d="M 10.296875 0 L 10.296875 -76.84375 L 89.03125 -76.84375 L 89.03125 -61.625 L 29.640625 -61.625 L 29.640625 -46.53125 L 82.09375 -46.53125 L 82.09375 -31.546875 L 29.640625 -31.546875 L 29.640625 -15.328125 L 89.921875 -15.328125 L 89.921875 0 Z M 10.296875 0 "/></g></g></g><g fill="#143aa2" fill-opacity="1"><g transform="translate(489.548268, 153.522551)"><g><path d="M 10.296875 0 L 10.296875 -76.84375 L 52 -76.84375 C 61.476562 -76.84375 69.609375 -75.367188 76.390625 -72.421875 C 83.171875 -69.472656 88.390625 -65.144531 92.046875 -59.4375 C 95.703125 -53.738281 97.53125 -46.710938 97.53125 -38.359375 C 97.53125 -30.085938 95.703125 -23.097656 92.046875 -17.390625 C 88.390625 -11.679688 83.171875 -7.351562 76.390625 -4.40625 C 69.609375 -1.46875 61.476562 0 52 0 Z M 29.640625 -15.328125 L 51 -15.328125 C 54.875 -15.328125 58.429688 -15.789062 61.671875 -16.71875 C 64.921875 -17.65625 67.738281 -19.035156 70.125 -20.859375 C 72.507812 -22.679688 74.332031 -24.953125 75.59375 -27.671875 C 76.863281 -30.398438 77.5 -33.550781 77.5 -37.125 L 77.5 -39.703125 C 77.5 -43.285156 76.863281 -46.4375 75.59375 -49.15625 C 74.332031 -51.875 72.507812 -54.144531 70.125 -55.96875 C 67.738281 -57.800781 64.921875 -59.203125 61.671875 -60.171875 C 58.429688 -61.140625 54.875 -61.625 51 -61.625 L 29.640625 -61.625 Z M 29.640625 -15.328125 "/></g></g></g><g fill="#143aa2" fill-opacity="1"><g transform="translate(593.997946, 153.522551)"><g><path d="M 10.296875 0 L 10.296875 -76.84375 L 29.640625 -76.84375 L 29.640625 -47.3125 L 79.40625 -47.3125 L 79.40625 -76.84375 L 98.765625 -76.84375 L 98.765625 0 L 79.40625 0 L 79.40625 -30.984375 L 29.640625 -30.984375 L 29.640625 0 Z M 10.296875 0 "/></g></g></g><g fill="#143aa2" fill-opacity="1"><g transform="translate(703.032703, 153.522551)"><g><path d="M 2.34375 0 L 40.484375 -76.84375 L 62.1875 -76.84375 L 100.328125 0 L 79.296875 0 L 72.59375 -13.875 L 28.859375 -13.875 L 22.140625 0 Z M 35.90625 -28.75 L 65.546875 -28.75 L 57.375 -46.296875 C 57.070312 -47.046875 56.585938 -48.164062 55.921875 -49.65625 C 55.253906 -51.144531 54.601562 -52.671875 53.96875 -54.234375 C 53.332031 -55.804688 52.753906 -57.222656 52.234375 -58.484375 C 51.710938 -59.753906 51.375 -60.539062 51.21875 -60.84375 L 50.328125 -60.84375 C 49.734375 -59.351562 49.023438 -57.675781 48.203125 -55.8125 C 47.378906 -53.945312 46.613281 -52.132812 45.90625 -50.375 C 45.195312 -48.625 44.582031 -47.226562 44.0625 -46.1875 Z M 35.90625 -28.75 "/></g></g></g><g fill="#143aa2" fill-opacity="1"><g transform="translate(266.893761, 256.120548)"><g><path d="M 54.578125 1.34375 C 44.066406 1.34375 35.269531 -0.164062 28.1875 -3.1875 C 21.101562 -6.207031 15.789062 -10.679688 12.25 -16.609375 C 8.707031 -22.535156 6.9375 -29.820312 6.9375 -38.46875 C 6.9375 -51.144531 11 -60.929688 19.125 -67.828125 C 27.25 -74.722656 39.03125 -78.171875 54.46875 -78.171875 C 63.1875 -78.171875 70.863281 -76.90625 77.5 -74.375 C 84.144531 -71.84375 89.328125 -68.226562 93.046875 -63.53125 C 96.773438 -58.832031 98.640625 -53.238281 98.640625 -46.75 L 79.75 -46.75 C 79.75 -50.175781 78.6875 -53.101562 76.5625 -55.53125 C 74.4375 -57.957031 71.453125 -59.800781 67.609375 -61.0625 C 63.765625 -62.332031 59.269531 -62.96875 54.125 -62.96875 C 48.457031 -62.96875 43.570312 -62.035156 39.46875 -60.171875 C 35.375 -58.304688 32.242188 -55.660156 30.078125 -52.234375 C 27.921875 -48.804688 26.84375 -44.703125 26.84375 -39.921875 L 26.84375 -37.125 C 26.84375 -32.351562 27.921875 -28.234375 30.078125 -24.765625 C 32.242188 -21.304688 35.375 -18.644531 39.46875 -16.78125 C 43.570312 -14.914062 48.457031 -13.984375 54.125 -13.984375 C 59.570312 -13.984375 64.234375 -14.578125 68.109375 -15.765625 C 71.984375 -16.960938 74.984375 -18.753906 77.109375 -21.140625 C 79.234375 -23.523438 80.296875 -26.429688 80.296875 -29.859375 L 98.765625 -29.859375 C 98.765625 -23.523438 96.9375 -18.007812 93.28125 -13.3125 C 89.625 -8.613281 84.492188 -4.992188 77.890625 -2.453125 C 71.296875 0.078125 63.523438 1.34375 54.578125 1.34375 Z M 54.578125 1.34375 "/></g></g></g><g fill="#143aa2" fill-opacity="1"><g transform="translate(372.461746, 256.120548)"><g><path d="M 10.296875 0 L 10.296875 -76.84375 L 29.640625 -76.84375 L 29.640625 -16.328125 L 78.625 -16.328125 L 78.625 0 Z M 10.296875 0 "/></g></g></g><g fill="#143aa2" fill-opacity="1"><g transform="translate(454.098008, 256.120548)"><g><path d="M 56.8125 1.34375 C 46.601562 1.34375 37.75 -0.21875 30.25 -3.34375 C 22.757812 -6.476562 17 -11.007812 12.96875 -16.9375 C 8.945312 -22.863281 6.9375 -30.039062 6.9375 -38.46875 C 6.9375 -46.894531 8.945312 -54.070312 12.96875 -60 C 17 -65.925781 22.757812 -70.4375 30.25 -73.53125 C 37.75 -76.625 46.601562 -78.171875 56.8125 -78.171875 C 67.101562 -78.171875 75.976562 -76.625 83.4375 -73.53125 C 90.894531 -70.4375 96.632812 -65.925781 100.65625 -60 C 104.6875 -54.070312 106.703125 -46.894531 106.703125 -38.46875 C 106.703125 -30.039062 104.6875 -22.863281 100.65625 -16.9375 C 96.632812 -11.007812 90.894531 -6.476562 83.4375 -3.34375 C 75.976562 -0.21875 67.101562 1.34375 56.8125 1.34375 Z M 56.8125 -13.984375 C 61.21875 -13.984375 65.242188 -14.484375 68.890625 -15.484375 C 72.546875 -16.492188 75.710938 -17.96875 78.390625 -19.90625 C 81.078125 -21.84375 83.148438 -24.285156 84.609375 -27.234375 C 86.066406 -30.179688 86.796875 -33.519531 86.796875 -37.25 L 86.796875 -39.8125 C 86.796875 -43.539062 86.066406 -46.859375 84.609375 -49.765625 C 83.148438 -52.671875 81.078125 -55.09375 78.390625 -57.03125 C 75.710938 -58.976562 72.546875 -60.453125 68.890625 -61.453125 C 65.242188 -62.460938 61.21875 -62.96875 56.8125 -62.96875 C 52.414062 -62.96875 48.390625 -62.460938 44.734375 -61.453125 C 41.078125 -60.453125 37.90625 -58.976562 35.21875 -57.03125 C 32.539062 -55.09375 30.472656 -52.671875 29.015625 -49.765625 C 27.566406 -46.859375 26.84375 -43.539062 26.84375 -39.8125 L 26.84375 -37.25 C 26.84375 -33.519531 27.566406 -30.179688 29.015625 -27.234375 C 30.472656 -24.285156 32.539062 -21.84375 35.21875 -19.90625 C 37.90625 -17.96875 41.078125 -16.492188 44.734375 -15.484375 C 48.390625 -14.484375 52.414062 -13.984375 56.8125 -13.984375 Z M 56.8125 -13.984375 "/></g></g></g><g fill="#143aa2" fill-opacity="1"><g transform="translate(567.717777, 256.120548)"><g><path d="M 53.34375 1.34375 C 43.507812 1.34375 35.363281 -0.144531 28.90625 -3.125 C 22.457031 -6.113281 17.648438 -10.363281 14.484375 -15.875 C 11.316406 -21.394531 9.734375 -27.957031 9.734375 -35.5625 L 9.734375 -76.84375 L 29.078125 -76.84375 L 29.078125 -36.46875 C 29.078125 -29.300781 31.179688 -23.757812 35.390625 -19.84375 C 39.609375 -15.9375 45.59375 -13.984375 53.34375 -13.984375 C 61.101562 -13.984375 67.085938 -15.9375 71.296875 -19.84375 C 75.515625 -23.757812 77.625 -29.300781 77.625 -36.46875 L 77.625 -76.84375 L 96.859375 -76.84375 L 96.859375 -35.5625 C 96.859375 -27.957031 95.289062 -21.394531 92.15625 -15.875 C 89.03125 -10.363281 84.238281 -6.113281 77.78125 -3.125 C 71.332031 -0.144531 63.1875 1.34375 53.34375 1.34375 Z M 53.34375 1.34375 "/></g></g></g><g fill="#143aa2" fill-opacity="1"><g transform="translate(674.404093, 256.120548)"><g><path d="M 10.296875 0 L 10.296875 -76.84375 L 52 -76.84375 C 61.476562 -76.84375 69.609375 -75.367188 76.390625 -72.421875 C 83.171875 -69.472656 88.390625 -65.144531 92.046875 -59.4375 C 95.703125 -53.738281 97.53125 -46.710938 97.53125 -38.359375 C 97.53125 -30.085938 95.703125 -23.097656 92.046875 -17.390625 C 88.390625 -11.679688 83.171875 -7.351562 76.390625 -4.40625 C 69.609375 -1.46875 61.476562 0 52 0 Z M 29.640625 -15.328125 L 51 -15.328125 C 54.875 -15.328125 58.429688 -15.789062 61.671875 -16.71875 C 64.921875 -17.65625 67.738281 -19.035156 70.125 -20.859375 C 72.507812 -22.679688 74.332031 -24.953125 75.59375 -27.671875 C 76.863281 -30.398438 77.5 -33.550781 77.5 -37.125 L 77.5 -39.703125 C 77.5 -43.285156 76.863281 -46.4375 75.59375 -49.15625 C 74.332031 -51.875 72.507812 -54.144531 70.125 -55.96875 C 67.738281 -57.800781 64.921875 -59.203125 61.671875 -60.171875 C 58.429688 -61.140625 54.875 -61.625 51 -61.625 L 29.640625 -61.625 Z M 29.640625 -15.328125 "/></g></g></g></svg>